# xmcd CD database file
#
# Track frame offsets:
#	150
#	16152
#	26190
#	35880
#	43312
#	46290
#	52713
#	63819
#	81813
#	92751
#	98225
#	107830
#	110615
#	113577
#	120286
#	123656
#	125980
#	133530
#	138219
#	145178
#	147726
#	157680
#	160670
#	165659
#	168566
#	174246
#	177213
#	184436
#	189436
#	198228
#	204485
#	210263
#	221581
#	232556
#	243307
#	254567
#	266637
#
# Disc length: 3792 seconds
#
# Revision: 1
# Processed by: cddbd v1.5.2PL0 Copyright (c) Steve Scherf et al.
# Submitted via: CDex 1.51
#
DISCID=0a0ece25
DTITLE=Posaunenwerk der EKKW - Kurhessisches Bläserheft 2008 - Gotteslob - Lebensklang
DYEAR=2008
DGENRE=Brass
TTITLE0=Jubelt dem Ewigen alle Lande
TTITLE1=Largo cantabile
TTITLE2=Nun danket alle Gott (EG 321)
TTITLE3=Auf meinen lieben Gott (EG 345)
TTITLE4=Auf meinen lieben Gott
TTITLE5=Der Heilig Geist vom Himmel kam
TTITLE6=Intrada
TTITLE7=Aus der Tiefe ruf ich, Herr, zu dir
TTITLE8=Sarabande
TTITLE9=Gloria in excelsis Deo
TTITLE10=Hymnus
TTITLE11=Du meine Seele, singe (EG 302)
TTITLE12=---
TTITLE13=---
TTITLE14=Das könnte den Herren der Welt (EG 550)
TTITLE15=---
TTITLE16=Gehe ein in deinen Frieden (EG 489)
TTITLE17=Liebe ist nicht nur ein Wort (EG 629)
TTITLE18=Lobt den Herren (EG 573)
TTITLE19=---
TTITLE20=Heaven Is A Wonderful Place
TTITLE21=Korn, das in die Erde (EG 98)
TTITLE22=---
TTITLE23=---
TTITLE24=We Shall Overcome (EG 636)
TTITLE25=---
TTITLE26=Siyahamba
TTITLE27=Auf den Wellen des Balaton
TTITLE28=Mekhutonim Tants
TTITLE29=Khosn kale mazl tov
TTITLE30=Tango
TTITLE31=La Noche Infinita
TTITLE32=Go Down Moses
TTITLE33=O Happy Day
TTITLE34=Strangers in the Night
TTITLE35=Summer in the City
TTITLE36=Just a Gigolo-I Ain't Got Nobody
EXTD=YEAR: 2008
EXTT0=
EXTT1=
EXTT2=
EXTT3=
EXTT4=
EXTT5=
EXTT6=
EXTT7=
EXTT8=
EXTT9=
EXTT10=
EXTT11=
EXTT12=
EXTT13=
EXTT14=
EXTT15=
EXTT16=
EXTT17=
EXTT18=
EXTT19=
EXTT20=
EXTT21=
EXTT22=
EXTT23=
EXTT24=
EXTT25=
EXTT26=
EXTT27=
EXTT28=
EXTT29=
EXTT30=
EXTT31=
EXTT32=
EXTT33=
EXTT34=
EXTT35=
EXTT36=
PLAYORDER=
